<?xml version="1.0" standalone="no"?>
<!DOCTYPE svg PUBLIC "-//W3C//DTD SVG 20010904//EN"
 "http://www.w3.org/TR/2001/REC-SVG-20010904/DTD/svg10.dtd">
<svg version="1.0" xmlns="http://www.w3.org/2000/svg"
 width="1000.000000pt" height="1000.000000pt" viewBox="0 0 1000.000000 1000.000000"
 preserveAspectRatio="xMidYMid meet">
<metadata>
Created by potrace 1.15, written by Peter Selinger 2001-2017
</metadata>
<g transform="translate(0.000000,1000.000000) scale(0.100000,-0.100000)"
fill="#000000" stroke="none">
<path d="M4675 8115 c-169 -22 -314 -59 -715 -181 -337 -103 -509 -182 -671
-309 -277 -217 -523 -397 -597 -435 -88 -45 -133 -88 -246 -234 -55 -71 -196
-287 -196 -300 0 -2 15 0 32 5 56 16 58 13 37 -43 -10 -29 -19 -54 -19 -56 0
-2 26 19 58 46 31 27 71 57 89 66 l31 16 7 -32 c6 -27 -4 -55 -63 -178 -39
-80 -86 -183 -105 -230 -40 -102 -128 -382 -141 -450 -2 -14 -9 -47 -16 -75
-6 -27 -23 -117 -37 -200 -25 -140 -27 -172 -27 -475 -1 -236 3 -352 14 -425
l14 -100 7 65 c4 36 14 83 23 105 l17 40 18 -30 c10 -17 35 -88 56 -160 112
-384 185 -585 283 -780 106 -208 188 -319 492 -655 93 -103 140 -164 162 -210
51 -106 143 -190 278 -252 171 -80 226 -105 335 -153 66 -29 152 -65 190 -79
39 -15 86 -34 105 -41 31 -13 81 -29 220 -71 147 -44 455 -84 648 -84 174 0
407 38 522 84 19 8 60 24 90 36 205 82 657 306 866 430 212 126 257 146 474
212 132 41 225 117 282 233 32 65 50 124 78 260 32 158 70 272 172 513 87 208
121 296 138 357 81 293 99 400 109 645 8 220 14 245 73 332 17 24 28 59 33 96
3 32 10 64 14 71 6 8 37 -28 96 -111 165 -230 175 -241 175 -199 0 10 7 35 15
54 35 83 8 489 -50 762 -34 159 -97 342 -158 459 -55 106 -306 461 -410 581
-84 96 -375 391 -472 478 -77 69 -78 70 -31 17 27 -30 67 -73 88 -94 29 -30
35 -43 27 -53 -6 -7 -15 -13 -19 -13 -4 0 -52 25 -106 56 l-99 55 151 -153
c159 -161 194 -203 237 -282 31 -56 34 -84 11 -93 -12 -4 -31 11 -68 53 -123
143 -158 171 -371 302 -462 283 -714 431 -785 462 -107 46 -149 76 -142 102 5
20 10 21 101 15 53 -4 119 -13 147 -21 27 -9 153 -68 279 -131 168 -84 232
-112 239 -104 7 8 8 13 1 15 -54 21 -421 236 -423 248 -4 20 -6 20 111 -5 124
-26 267 -72 324 -103 24 -14 40 -20 37 -14 -6 9 -157 85 -630 314 -81 39 -108
41 -195 14 -52 -17 -90 -20 -225 -21 -89 0 -222 7 -295 15 -354 40 -508 44
-694 21z m394 -265 c115 -12 234 -45 228 -63 -2 -7 -19 -11 -38 -10 -19 2
-131 6 -249 9 -204 6 -317 -1 -506 -32 -104 -16 -290 -64 -418 -106 -133 -44
-154 -26 -53 45 66 47 80 53 227 91 267 69 550 92 809 66z m376 -279 c185 -13
349 -54 495 -124 86 -41 126 -68 310 -211 356 -276 421 -330 552 -455 236
-227 375 -402 463 -586 84 -176 92 -246 41 -364 -28 -64 -46 -143 -46 -204 0
-66 29 -200 49 -227 25 -35 51 -36 132 -5 39 15 72 25 74 23 2 -2 9 -71 15
-153 51 -636 -123 -1245 -482 -1696 -74 -94 -461 -475 -613 -606 -127 -108
-292 -207 -466 -278 -100 -40 -353 -90 -564 -110 -497 -46 -756 -22 -1225 117
-551 164 -812 293 -1033 511 -206 204 -270 328 -594 1157 -14 36 -41 124 -59
195 -18 72 -33 121 -34 110 0 -17 11 -65 66 -275 5 -20 89 -287 154 -493 27
-83 -64 71 -125 213 -64 147 -103 280 -135 455 -22 122 -36 349 -20 323 6 -10
14 -18 18 -18 4 0 7 109 8 243 1 219 3 254 27 372 47 234 118 445 222 660 139
288 311 542 467 691 100 95 143 126 428 309 74 48 279 155 370 194 92 38 220
72 325 86 64 7 219 37 360 69 211 47 351 69 475 76 185 10 203 10 345 1z
m-2432 -602 c-142 -149 -271 -287 -286 -305 -57 -68 -65 -27 -12 61 73 120
223 285 369 404 79 64 151 111 174 111 8 0 -103 -122 -245 -271z m3952 76
c135 -96 286 -287 285 -361 l-1 -29 -26 30 c-14 17 -103 115 -197 219 -94 103
-173 192 -174 197 -7 17 52 -12 113 -56z"/>
<path d="M3315 5263 l0 -773 80 0 80 0 -3 246 c-3 147 0 250 5 255 18 18 40
-2 134 -113 52 -61 119 -140 149 -176 30 -36 82 -97 116 -136 l60 -71 108 -3
107 -3 -163 183 c-90 101 -197 224 -238 273 -41 50 -79 94 -85 98 -11 8 45 63
210 206 55 47 109 94 120 104 11 11 46 39 78 64 31 25 57 46 57 47 0 1 -38 0
-84 -1 l-85 -1 -102 -109 c-151 -159 -315 -310 -345 -317 -15 -4 -31 -3 -36 2
-11 11 -12 724 -2 892 l7 105 -84 0 -84 0 0 -772z"/>
<path d="M4732 5475 c-35 -8 -78 -23 -97 -35 -36 -22 -125 -116 -125 -131 0
-5 -4 -9 -8 -9 -5 0 -7 36 -4 79 l4 79 -85 4 -86 3 7 -60 c9 -79 9 -806 0
-867 l-8 -48 91 0 c85 0 90 1 84 19 -3 11 -7 163 -8 339 l-2 319 40 79 c37 73
44 81 99 109 138 70 296 9 330 -128 9 -36 8 -608 0 -682 l-7 -55 86 0 86 0 -6
263 c-6 277 5 455 32 506 35 69 145 131 231 131 85 0 170 -59 201 -139 16 -41
18 -78 16 -316 -2 -148 -6 -309 -11 -357 l-8 -88 81 0 82 0 6 368 c3 202 2
386 -2 410 -16 85 -102 183 -173 198 -110 23 -126 24 -197 13 -93 -15 -180
-70 -229 -144 -19 -27 -39 -52 -45 -54 -7 -2 -9 0 -5 4 11 12 -21 67 -34 59
-7 -5 -8 -3 -3 5 19 32 -96 109 -193 130 -63 13 -60 13 -140 -4z"/>
<path d="M6258 5477 c-147 -28 -239 -133 -246 -284 -8 -154 48 -215 262 -283
54 -18 120 -45 146 -61 77 -47 99 -121 61 -204 -66 -146 -276 -153 -396 -12
-36 42 -47 43 -52 4 -2 -12 -10 -42 -19 -66 -20 -51 -20 -51 77 -81 77 -23
212 -28 279 -10 146 39 243 146 257 283 14 141 -69 233 -255 281 -94 24 -155
53 -193 92 -32 33 -34 39 -34 103 0 59 4 72 28 104 34 44 71 65 132 73 65 10
146 -31 181 -92 29 -49 40 -48 49 5 3 18 13 47 21 63 19 36 17 39 -71 67 -82
27 -147 32 -227 18z"/>
</g>
</svg>
